<?xml version="1.0" encoding="utf-8"?>
<!-- Generator: Adobe Illustrator 16.0.0, SVG Export Plug-In . SVG Version: 6.00 Build 0)  -->
<!DOCTYPE svg PUBLIC "-//W3C//DTD SVG 1.1//EN" "http://www.w3.org/Graphics/SVG/1.1/DTD/svg11.dtd">
<svg version="1.1" id="Artwork" xmlns="http://www.w3.org/2000/svg" xmlns:xlink="http://www.w3.org/1999/xlink" x="0px" y="0px"
	 width="512px" height="512px" viewBox="0 0 512 512" enable-background="new 0 0 512 512" xml:space="preserve">
<g>
	<path d="M196.585,282.913c-1.893-2.007-1.893-5.292,0-7.3l33.506-35.541c1.893-2.007,2.133-5.49,0.535-7.739l-3.373-4.749
		c-1.598-2.249-4.467-2.459-6.373-0.466l-46.463,48.522c-1.908,1.992-1.908,5.253,0,7.246l46.463,48.519
		c1.908,1.993,4.775,1.783,6.373-0.466l3.375-4.75c1.598-2.249,1.355-5.731-0.537-7.738L196.585,282.913z"/>
	<path d="M297.522,222.59h-6.236c-2.758,0-5.758,2.132-6.664,4.738l-36.125,103.866c-0.906,2.605,0.611,4.737,3.369,4.737h6.232
		c2.758,0,5.758-2.132,6.664-4.737l36.127-103.866C301.796,224.722,300.28,222.59,297.522,222.59z"/>
	<path d="M328.511,227.118c-1.908-1.993-4.775-1.783-6.373,0.466l-3.373,4.749c-1.598,2.249-1.357,5.732,0.535,7.739l33.508,35.541
		c1.893,2.008,1.893,5.293,0,7.3L319.3,318.451c-1.893,2.007-2.133,5.489-0.535,7.738l3.373,4.75
		c1.598,2.249,4.465,2.459,6.373,0.466l46.463-48.519c1.908-1.993,1.906-5.254,0-7.246L328.511,227.118z"/>
	<path d="M447.402,88.283H101.984c-12.838,0-23.283,10.445-23.283,23.284v281.738c0,12.839,10.445,23.284,23.283,23.284h345.418
		c12.84,0,23.284-10.445,23.284-23.284V111.567C470.687,98.729,460.242,88.283,447.402,88.283z M239.854,117.594
		c0-2.923,2.393-5.315,5.314-5.315h31.87c2.923,0,5.314,2.392,5.314,5.315v9.994c0,2.923-2.392,5.315-5.314,5.315h-31.87
		c-2.922,0-5.314-2.392-5.314-5.315V117.594z M174.419,117.594c0-2.923,2.392-5.315,5.314-5.315h31.869
		c2.923,0,5.314,2.392,5.314,5.315v9.994c0,2.923-2.392,5.315-5.314,5.315h-31.869c-2.923,0-5.314-2.392-5.314-5.315V117.594z
		 M110.64,117.594c0-2.923,2.392-5.315,5.314-5.315h31.869c2.923,0,5.314,2.392,5.314,5.315v9.994c0,2.923-2.392,5.315-5.314,5.315
		h-31.869c-2.923,0-5.314-2.392-5.314-5.315V117.594z M452.059,390.241c0,3.065-2.533,5.573-5.625,5.573H102.955
		c-3.094,0-5.625-2.508-5.625-5.573V158.113c0-3.065,2.531-5.573,5.625-5.573h343.479c3.092,0,5.625,2.508,5.625,5.573V390.241z"/>
</g>
</svg>
