<?xml version="1.0" encoding="utf-8"?>
<!-- Generator: Adobe Illustrator 16.0.0, SVG Export Plug-In . SVG Version: 6.00 Build 0)  -->
<!DOCTYPE svg PUBLIC "-//W3C//DTD SVG 1.1//EN" "http://www.w3.org/Graphics/SVG/1.1/DTD/svg11.dtd">
<svg version="1.1" id="Layer_1" xmlns="http://www.w3.org/2000/svg" xmlns:xlink="http://www.w3.org/1999/xlink" x="0px" y="0px"
	 width="512px" height="512px" viewBox="0 0 512 512" enable-background="new 0 0 512 512" xml:space="preserve">
<g>
	<path d="M180.798,188.941c2.717,2.267,5.601,4.111,8.595,5.557l44.235-9.761c1.395-1.635,2.721-3.213,3.87-5.096
		c5.529-9.063,10.706-25.232,3.983-50.817c-5.34-20.311-18.767-29.558-30.613-37.717c-11.322-7.798-20.267-13.959-20.826-27.835
		c-0.055-1.363-0.854-2.585-2.079-3.187c-0.77-0.379-1.632-0.474-2.441-0.293c-0.479,0.105-0.939,0.306-1.352,0.599
		c-18.647,13.274-34.604,46.141-25.567,86.938C162.707,165.862,170.38,180.25,180.798,188.941z M216.15,130.175
		c0.134-0.209,0.281-0.418,0.438-0.615c0.533-0.672,1.176-1.247,1.911-1.705c3.486-2.16,8.08-1.085,10.242,2.398
		c0.399,0.647,9.683,16.01,0.91,36.629c-0.161,0.379-0.354,0.743-0.572,1.087c-1.962,3.08-5.824,4.275-9.184,2.846
		c-1.828-0.78-3.244-2.219-3.985-4.062c-0.744-1.846-0.725-3.867,0.052-5.698c5.671-13.324,0.344-22.608,0.112-22.999
		C214.602,135.68,214.621,132.573,216.15,130.175z"/>
	<path d="M276.518,221.88c0.679-3.117,3.76-5.098,6.879-4.418c3.12,0.68,5.099,3.761,4.42,6.878l-0.551,2.533h35.538l-0.092-11.602
		l-51.619-11.22l-10.667,22.821h15.005L276.518,221.88z"/>
	<path d="M206.154,209.96c2.673-0.592,5.322,1.097,5.914,3.771l2.911,13.142h36.419l-15.394-32.629l-44.249,9.698l-0.111,22.931
		h13.178l-2.436-10.997C201.793,213.202,203.481,210.553,206.154,209.96z"/>
	<path d="M355.878,119.967l-18.53-40.206l2.056-9.439c2.099-1.371,3.712-3.916,4.373-6.952c1.148-5.271-0.985-10.061-4.857-10.904
		c-0.318-0.069-0.662-0.105-1.046-0.112c-2.279-0.153-4.354,1.396-4.84,3.625l-14.755,67.857c1.901,1.523,2.89,4.036,2.337,6.577
		c-0.779,3.577-4.309,5.846-7.885,5.067c-3.576-0.779-5.842-4.311-5.063-7.886c0.553-2.541,2.499-4.416,4.86-5.011l14.759-67.856
		c0.486-2.229-0.757-4.502-2.894-5.311c-0.354-0.154-0.68-0.263-1-0.332c-3.872-0.844-7.804,2.626-8.952,7.897
		c-0.66,3.035-0.252,6.021,1.087,8.14l-2.067,9.489l-33.521,28.818c-0.271,0.231-0.437,0.563-0.46,0.918l-5.662,88.28l50.536,11.005
		l31.559-82.64C356.04,120.661,356.028,120.29,355.878,119.967z"/>
	<path d="M165.483,240.344l27.079,210.883c0.867,6.756,6.618,11.815,13.43,11.815h105.609c6.811,0,12.562-5.06,13.429-11.815
		l27.079-210.883H165.483z M220.124,370.475c-0.354,0.033-0.705,0.049-1.052,0.049c-5.584,0-10.355-4.248-10.896-9.92l-7.792-81.818
		c-0.574-6.025,3.845-11.374,9.87-11.947c6.027-0.577,11.374,3.846,11.947,9.869l7.792,81.818
		C230.566,364.551,226.148,369.899,220.124,370.475z"/>
</g>
</svg>
